<svg width="98" height="32" viewBox="0 0 98 32" fill="none" xmlns="http://www.w3.org/2000/svg">
<g opacity="0.69">
<path fill-rule="evenodd" clip-rule="evenodd" d="M60.0234 3.0625V6.125H56.9609H53.8984V12.8625V19.6H56.9609H60.0234V22.6625V25.725H63.0859H66.1484V28.7875V31.85H69.5172H72.8859V28.7875V25.725H75.9484H79.0109V28.7875V31.85H82.3797L85.7484 31.85V28.7875V25.725H88.8109H91.8734V22.6625V19.6H94.9359H97.9984V12.8625V6.125H94.9359H91.8734V3.0625V0L88.5047 0L85.1359 0V3.0625V6.125H75.9484L66.7609 6.125V3.0625V0L63.3922 0L60.0234 0V3.0625ZM66.7609 15.925V18.9875H69.8234H72.8859V15.925V12.8625H69.8234L66.7609 12.8625V15.925ZM79.0109 15.925V18.9875H82.0734L85.1359 18.9875V15.925V12.8625H82.0734H79.0109V15.925Z" fill="#8D2323"/>
<rect x="12.25" y="30.625" width="60.6375" height="1.225" fill="#8D2323"/>
<rect x="29.3984" y="24.5" width="30.625" height="1.225" fill="#8D2323"/>
<rect x="6.125" width="60.6375" height="1.225" fill="#8D2323"/>
<rect x="25.1133" y="6.125" width="11.6375" height="1.225" fill="#8D2323"/>
<rect x="42.875" y="6.125" width="3.675" height="1.225" fill="#8D2323"/>
<rect x="41.0391" y="12.8594" width="12.8625" height="1.225" fill="#8D2323"/>
<rect x="56.9609" y="2.45312" width="7.35" height="1.225" fill="#D1406E"/>
<rect x="69.2109" y="14.0859" width="7.35" height="1.225" fill="#D1406E"/>
<rect x="88.1992" y="8.57812" width="7.35" height="1.225" fill="#D1406E"/>
<rect x="83.3008" y="19.6016" width="7.35" height="1.225" fill="#D1406E"/>
<rect x="79.0117" y="19.6016" width="2.45" height="1.225" fill="#D1406E"/>
<rect width="3.675" height="1.225" fill="#8D2323"/>
<rect x="81.4609" width="3.675" height="1.225" fill="#8D2323"/>
<rect x="77.7891" width="3.675" height="1.225" fill="#8D2323"/>
<rect x="72.8867" width="3.675" height="1.225" fill="#8D2323"/>
<rect x="39.1992" y="18.375" width="3.675" height="1.225" fill="#8D2323"/>
<rect x="95.5508" y="6.125" width="2.45" height="13.475" fill="#D1406E"/>
<rect x="89.4258" width="2.45" height="6.125" fill="#D1406E"/>
<rect x="89.4258" y="19.6016" width="2.45" height="6.125" fill="#D1406E"/>
<rect x="64.3125" width="2.45" height="6.125" fill="#D1406E"/>
<rect x="83.3008" y="25.7266" width="2.45" height="6.125" fill="#D1406E"/>
<rect x="70.4375" y="25.7266" width="2.45" height="6.125" fill="#D1406E"/>
<rect x="76.5625" y="12.8594" width="2.45" height="6.125" fill="#D1406E"/>
<rect x="64.3125" y="12.8594" width="2.45" height="6.125" fill="#D1406E"/>
<rect x="63.0859" y="12.8594" width="3.675" height="1.225" fill="#CCCCCC"/>
<rect x="59.4141" y="12.8594" width="2.45" height="1.225" fill="#CCCCCC"/>
<rect x="76.5625" y="12.8594" width="2.45" height="1.225" fill="#CCCCCC"/>
<rect x="64.3125" y="4.89844" width="2.45" height="1.225" fill="#CCCCCC"/>
<rect x="70.4375" y="25.7266" width="2.45" height="1.225" fill="#CCCCCC"/>
<rect x="75.3359" y="17.7656" width="3.675" height="1.225" fill="#CCCCCC"/>
<rect x="65.5391" y="17.7656" width="1.225" height="1.225" fill="#CCCCCC"/>
<rect x="75.3359" y="30.625" width="3.675" height="1.225" fill="#8D2323"/>
<rect x="92.4883" y="15.3125" width="5.5125" height="1.225" fill="#CCCCCC"/>
<rect x="73.5" y="9.1875" width="1.8375" height="1.225" fill="#CCCCCC"/>
</g>
</svg>
