<svg width="52" height="17" viewBox="0 0 52 17" fill="none" xmlns="http://www.w3.org/2000/svg">
<g opacity="0.29">
<path fill-rule="evenodd" clip-rule="evenodd" d="M31.8477 1.625V3.25H30.2227H28.5977V6.825V10.4H30.2227H31.8477V12.025V13.65H33.4727H35.0977V15.275V16.9H36.8852H38.6727V15.275V13.65H40.2977H41.9227V15.275V16.9H43.7102H45.4977V15.275V13.65H47.1227H48.7477V12.025V10.4H50.3727H51.9977V6.825V3.25H50.3727H48.7477V1.625V0L46.9602 0L45.1727 0V1.625V3.25H40.2977L35.4227 3.25V1.625V0L33.6352 0L31.8477 0V1.625ZM35.4227 8.45V10.075H37.0477H38.6727V8.45V6.825H37.0477L35.4227 6.825V8.45ZM41.9227 8.45V10.075L43.5477 10.075H45.1727V8.45V6.825H43.5477H41.9227V8.45Z" fill="#8D2323"/>
<rect x="6.5" y="16.25" width="32.175" height="0.65" fill="#8D2323"/>
<rect x="15.5977" y="13" width="16.25" height="0.65" fill="#8D2323"/>
<rect x="3.25" width="32.175" height="0.65" fill="#8D2323"/>
<rect x="13.3242" y="3.25" width="6.175" height="0.65" fill="#8D2323"/>
<rect x="22.75" y="3.25" width="1.95" height="0.65" fill="#8D2323"/>
<rect x="21.7773" y="6.82031" width="6.825" height="0.65" fill="#8D2323"/>
<rect x="30.2227" y="1.30469" width="3.9" height="0.65" fill="#D1406E"/>
<rect x="36.7227" y="7.47656" width="3.9" height="0.65" fill="#D1406E"/>
<rect x="46.8008" y="4.55469" width="3.9" height="0.65" fill="#D1406E"/>
<rect x="44.1992" y="10.3984" width="3.9" height="0.65" fill="#D1406E"/>
<rect x="41.9258" y="10.3984" width="1.3" height="0.65" fill="#D1406E"/>
<rect width="1.95" height="0.65" fill="#8D2323"/>
<rect x="43.2227" width="1.95" height="0.65" fill="#8D2323"/>
<rect x="41.2773" width="1.95" height="0.65" fill="#8D2323"/>
<rect x="38.6758" width="1.95" height="0.65" fill="#8D2323"/>
<rect x="20.8008" y="9.75" width="1.95" height="0.65" fill="#8D2323"/>
<rect x="50.6992" y="3.25" width="1.3" height="7.15" fill="#D1406E"/>
<rect x="47.4492" width="1.3" height="3.25" fill="#D1406E"/>
<rect x="47.4492" y="10.3984" width="1.3" height="3.25" fill="#D1406E"/>
<rect x="34.125" width="1.3" height="3.25" fill="#D1406E"/>
<rect x="44.1992" y="13.6484" width="1.3" height="3.25" fill="#D1406E"/>
<rect x="37.375" y="13.6484" width="1.3" height="3.25" fill="#D1406E"/>
<rect x="40.625" y="6.82031" width="1.3" height="3.25" fill="#D1406E"/>
<rect x="34.125" y="6.82031" width="1.3" height="3.25" fill="#D1406E"/>
<rect x="33.4727" y="6.82031" width="1.95" height="0.65" fill="#CCCCCC"/>
<rect x="31.5273" y="6.82031" width="1.3" height="0.65" fill="#CCCCCC"/>
<rect x="40.625" y="6.82031" width="1.3" height="0.65" fill="#CCCCCC"/>
<rect x="34.125" y="2.60156" width="1.3" height="0.65" fill="#CCCCCC"/>
<rect x="37.375" y="13.6484" width="1.3" height="0.65" fill="#CCCCCC"/>
<rect x="39.9727" y="9.42969" width="1.95" height="0.65" fill="#CCCCCC"/>
<rect x="34.7773" y="9.42969" width="0.65" height="0.65" fill="#CCCCCC"/>
<rect x="39.9727" y="16.25" width="1.95" height="0.65" fill="#8D2323"/>
<rect x="49.0742" y="8.125" width="2.925" height="0.65" fill="#CCCCCC"/>
<rect x="39" y="4.875" width="0.975" height="0.65" fill="#CCCCCC"/>
</g>
</svg>
