<svg width="800" height="800" viewBox="0 0 800 800" fill="none" xmlns="http://www.w3.org/2000/svg">
<rect width="100" height="100" fill="#252525"/>
<rect x="100" y="100" width="100" height="100" fill="#252525"/>
<rect y="100" width="100" height="100" fill="#222222"/>
<rect x="100" width="100" height="100" fill="#222222"/>
<path fill-rule="evenodd" clip-rule="evenodd" d="M124 29V34H119H114V45V56H119H124V61V66H129H134V71V76H139.5H145V71V66H150H155V71V76H160.5H166V71V66H171H176V61V56H181H186V45V34H181H176V29V24H170.5H165V29V34H150H135V29V24H129.5H124V29ZM135 50V55H140H145V50V45H140H135V50ZM155 50V55H160H165V50V45H160H155V50Z" fill="#1C1C1C"/>
<path fill-rule="evenodd" clip-rule="evenodd" d="M24 129V134H19H14V145V156H19H24V161V166H29H34V171V176H39.5H45V171V166H50H55V171V176H60.5H66V171V166H71H76V161V156H81H86V145V134H81H76V129V124H70.5H65V129V134H50H35V129V124H29.5H24V129ZM35 150V155H40H45V150V145H40H35V150ZM55 150V155H60H65V150V145H60H55V150Z" fill="#1C1C1C"/>
<path fill-rule="evenodd" clip-rule="evenodd" d="M124 129V134H119H114V145V156H119H124V161V166H129H134V171V176H139.5H145V171V166H150H155V171V176H160.5H166V171V166H171H176V161V156H181H186V145V134H181H176V129V124H170.5H165V129V134H150H135V129V124H129.5H124V129ZM135 150V155H140H145V150V145H140H135V150ZM155 150V155H160H165V150V145H160H155V150Z" fill="#2C2C2C"/>
<path fill-rule="evenodd" clip-rule="evenodd" d="M24 29V34H19H14V45V56H19H24V61V66H29H34V71V76H39.5H45V71V66H50H55V71V76H60.5H66V71V66H71H76V61V56H81H86V45V34H81H76V29V24H70.5H65V29V34H50H35V29V24H29.5H24V29ZM35 50V55H40H45V50V45H40H35V50ZM55 50V55H60H65V50V45H60H55V50Z" fill="#2C2C2C"/>
<rect x="200" width="100" height="100" fill="#252525"/>
<rect x="300" y="100" width="100" height="100" fill="#252525"/>
<rect x="200" y="100" width="100" height="100" fill="#222222"/>
<rect x="300" width="100" height="100" fill="#222222"/>
<path fill-rule="evenodd" clip-rule="evenodd" d="M324 29V34H319H314V45V56H319H324V61V66H329H334V71V76H339.5H345V71V66H350H355V71V76H360.5H366V71V66H371H376V61V56H381H386V45V34H381H376V29V24H370.5H365V29V34H350H335V29V24H329.5H324V29ZM335 50V55H340H345V50V45H340H335V50ZM355 50V55H360H365V50V45H360H355V50Z" fill="#1C1C1C"/>
<path fill-rule="evenodd" clip-rule="evenodd" d="M224 129V134H219H214V145V156H219H224V161V166H229H234V171V176H239.5H245V171V166H250H255V171V176H260.5H266V171V166H271H276V161V156H281H286V145V134H281H276V129V124H270.5H265V129V134H250H235V129V124H229.5H224V129ZM235 150V155H240H245V150V145H240H235V150ZM255 150V155H260H265V150V145H260H255V150Z" fill="#1C1C1C"/>
<path fill-rule="evenodd" clip-rule="evenodd" d="M324 129V134H319H314V145V156H319H324V161V166H329H334V171V176H339.5H345V171V166H350H355V171V176H360.5H366V171V166H371H376V161V156H381H386V145V134H381H376V129V124H370.5H365V129V134H350H335V129V124H329.5H324V129ZM335 150V155H340H345V150V145H340H335V150ZM355 150V155H360H365V150V145H360H355V150Z" fill="#2C2C2C"/>
<path fill-rule="evenodd" clip-rule="evenodd" d="M224 29V34H219H214V45V56H219H224V61V66H229H234V71V76H239.5H245V71V66H250H255V71V76H260.5H266V71V66H271H276V61V56H281H286V45V34H281H276V29V24H270.5H265V29V34H250H235V29V24H229.5H224V29ZM235 50V55H240H245V50V45H240H235V50ZM255 50V55H260H265V50V45H260H255V50Z" fill="#2C2C2C"/>
<rect y="200" width="100" height="100" fill="#252525"/>
<rect x="100" y="300" width="100" height="100" fill="#252525"/>
<rect y="300" width="100" height="100" fill="#222222"/>
<rect x="100" y="200" width="100" height="100" fill="#222222"/>
<path fill-rule="evenodd" clip-rule="evenodd" d="M124 229V234H119H114V245V256H119H124V261V266H129H134V271V276H139.5H145V271V266H150H155V271V276H160.5H166V271V266H171H176V261V256H181H186V245V234H181H176V229V224H170.5H165V229V234H150H135V229V224H129.5H124V229ZM135 250V255H140H145V250V245H140H135V250ZM155 250V255H160H165V250V245H160H155V250Z" fill="#1C1C1C"/>
<path fill-rule="evenodd" clip-rule="evenodd" d="M24 329V334H19H14V345V356H19H24V361V366H29H34V371V376H39.5H45V371V366H50H55V371V376H60.5H66V371V366H71H76V361V356H81H86V345V334H81H76V329V324H70.5H65V329V334H50H35V329V324H29.5H24V329ZM35 350V355H40H45V350V345H40H35V350ZM55 350V355H60H65V350V345H60H55V350Z" fill="#1C1C1C"/>
<path fill-rule="evenodd" clip-rule="evenodd" d="M124 329V334H119H114V345V356H119H124V361V366H129H134V371V376H139.5H145V371V366H150H155V371V376H160.5H166V371V366H171H176V361V356H181H186V345V334H181H176V329V324H170.5H165V329V334H150H135V329V324H129.5H124V329ZM135 350V355H140H145V350V345H140H135V350ZM155 350V355H160H165V350V345H160H155V350Z" fill="#2C2C2C"/>
<path fill-rule="evenodd" clip-rule="evenodd" d="M24 229V234H19H14V245V256H19H24V261V266H29H34V271V276H39.5H45V271V266H50H55V271V276H60.5H66V271V266H71H76V261V256H81H86V245V234H81H76V229V224H70.5H65V229V234H50H35V229V224H29.5H24V229ZM35 250V255H40H45V250V245H40H35V250ZM55 250V255H60H65V250V245H60H55V250Z" fill="#2C2C2C"/>
<rect x="200" y="200" width="100" height="100" fill="#252525"/>
<rect x="300" y="300" width="100" height="100" fill="#252525"/>
<rect x="200" y="300" width="100" height="100" fill="#222222"/>
<rect x="300" y="200" width="100" height="100" fill="#222222"/>
<path fill-rule="evenodd" clip-rule="evenodd" d="M324 229V234H319H314V245V256H319H324V261V266H329H334V271V276H339.5H345V271V266H350H355V271V276H360.5H366V271V266H371H376V261V256H381H386V245V234H381H376V229V224H370.5H365V229V234H350H335V229V224H329.5H324V229ZM335 250V255H340H345V250V245H340H335V250ZM355 250V255H360H365V250V245H360H355V250Z" fill="#1C1C1C"/>
<path fill-rule="evenodd" clip-rule="evenodd" d="M224 329V334H219H214V345V356H219H224V361V366H229H234V371V376H239.5H245V371V366H250H255V371V376H260.5H266V371V366H271H276V361V356H281H286V345V334H281H276V329V324H270.5H265V329V334H250H235V329V324H229.5H224V329ZM235 350V355H240H245V350V345H240H235V350ZM255 350V355H260H265V350V345H260H255V350Z" fill="#1C1C1C"/>
<path fill-rule="evenodd" clip-rule="evenodd" d="M324 329V334H319H314V345V356H319H324V361V366H329H334V371V376H339.5H345V371V366H350H355V371V376H360.5H366V371V366H371H376V361V356H381H386V345V334H381H376V329V324H370.5H365V329V334H350H335V329V324H329.5H324V329ZM335 350V355H340H345V350V345H340H335V350ZM355 350V355H360H365V350V345H360H355V350Z" fill="#2C2C2C"/>
<path fill-rule="evenodd" clip-rule="evenodd" d="M224 229V234H219H214V245V256H219H224V261V266H229H234V271V276H239.5H245V271V266H250H255V271V276H260.5H266V271V266H271H276V261V256H281H286V245V234H281H276V229V224H270.5H265V229V234H250H235V229V224H229.5H224V229ZM235 250V255H240H245V250V245H240H235V250ZM255 250V255H260H265V250V245H260H255V250Z" fill="#2C2C2C"/>
<rect x="400" y="400" width="100" height="100" fill="#252525"/>
<rect x="500" y="500" width="100" height="100" fill="#252525"/>
<rect x="400" y="500" width="100" height="100" fill="#222222"/>
<rect x="500" y="400" width="100" height="100" fill="#222222"/>
<path fill-rule="evenodd" clip-rule="evenodd" d="M524 429V434H519H514V445V456H519H524V461V466H529H534V471V476H539.5H545V471V466H550H555V471V476H560.5H566V471V466H571H576V461V456H581H586V445V434H581H576V429V424H570.5H565V429V434H550H535V429V424H529.5H524V429ZM535 450V455H540H545V450V445H540H535V450ZM555 450V455H560H565V450V445H560H555V450Z" fill="#1C1C1C"/>
<path fill-rule="evenodd" clip-rule="evenodd" d="M424 529V534H419H414V545V556H419H424V561V566H429H434V571V576H439.5H445V571V566H450H455V571V576H460.5H466V571V566H471H476V561V556H481H486V545V534H481H476V529V524H470.5H465V529V534H450H435V529V524H429.5H424V529ZM435 550V555H440H445V550V545H440H435V550ZM455 550V555H460H465V550V545H460H455V550Z" fill="#1C1C1C"/>
<path fill-rule="evenodd" clip-rule="evenodd" d="M524 529V534H519H514V545V556H519H524V561V566H529H534V571V576H539.5H545V571V566H550H555V571V576H560.5H566V571V566H571H576V561V556H581H586V545V534H581H576V529V524H570.5H565V529V534H550H535V529V524H529.5H524V529ZM535 550V555H540H545V550V545H540H535V550ZM555 550V555H560H565V550V545H560H555V550Z" fill="#2C2C2C"/>
<path fill-rule="evenodd" clip-rule="evenodd" d="M424 429V434H419H414V445V456H419H424V461V466H429H434V471V476H439.5H445V471V466H450H455V471V476H460.5H466V471V466H471H476V461V456H481H486V445V434H481H476V429V424H470.5H465V429V434H450H435V429V424H429.5H424V429ZM435 450V455H440H445V450V445H440H435V450ZM455 450V455H460H465V450V445H460H455V450Z" fill="#2C2C2C"/>
<rect x="600" y="400" width="100" height="100" fill="#252525"/>
<rect x="700" y="500" width="100" height="100" fill="#252525"/>
<rect x="600" y="500" width="100" height="100" fill="#222222"/>
<rect x="700" y="400" width="100" height="100" fill="#222222"/>
<path fill-rule="evenodd" clip-rule="evenodd" d="M724 429V434H719H714V445V456H719H724V461V466H729H734V471V476H739.5H745V471V466H750H755V471V476H760.5H766V471V466H771H776V461V456H781H786V445V434H781H776V429V424H770.5H765V429V434H750H735V429V424H729.5H724V429ZM735 450V455H740H745V450V445H740H735V450ZM755 450V455H760H765V450V445H760H755V450Z" fill="#1C1C1C"/>
<path fill-rule="evenodd" clip-rule="evenodd" d="M624 529V534H619H614V545V556H619H624V561V566H629H634V571V576H639.5H645V571V566H650H655V571V576H660.5H666V571V566H671H676V561V556H681H686V545V534H681H676V529V524H670.5H665V529V534H650H635V529V524H629.5H624V529ZM635 550V555H640H645V550V545H640H635V550ZM655 550V555H660H665V550V545H660H655V550Z" fill="#1C1C1C"/>
<path fill-rule="evenodd" clip-rule="evenodd" d="M724 529V534H719H714V545V556H719H724V561V566H729H734V571V576H739.5H745V571V566H750H755V571V576H760.5H766V571V566H771H776V561V556H781H786V545V534H781H776V529V524H770.5H765V529V534H750H735V529V524H729.5H724V529ZM735 550V555H740H745V550V545H740H735V550ZM755 550V555H760H765V550V545H760H755V550Z" fill="#2C2C2C"/>
<path fill-rule="evenodd" clip-rule="evenodd" d="M624 429V434H619H614V445V456H619H624V461V466H629H634V471V476H639.5H645V471V466H650H655V471V476H660.5H666V471V466H671H676V461V456H681H686V445V434H681H676V429V424H670.5H665V429V434H650H635V429V424H629.5H624V429ZM635 450V455H640H645V450V445H640H635V450ZM655 450V455H660H665V450V445H660H655V450Z" fill="#2C2C2C"/>
<rect x="400" y="600" width="100" height="100" fill="#252525"/>
<rect x="500" y="700" width="100" height="100" fill="#252525"/>
<rect x="400" y="700" width="100" height="100" fill="#222222"/>
<rect x="500" y="600" width="100" height="100" fill="#222222"/>
<path fill-rule="evenodd" clip-rule="evenodd" d="M524 629V634H519H514V645V656H519H524V661V666H529H534V671V676H539.5H545V671V666H550H555V671V676H560.5H566V671V666H571H576V661V656H581H586V645V634H581H576V629V624H570.5H565V629V634H550H535V629V624H529.5H524V629ZM535 650V655H540H545V650V645H540H535V650ZM555 650V655H560H565V650V645H560H555V650Z" fill="#1C1C1C"/>
<path fill-rule="evenodd" clip-rule="evenodd" d="M424 729V734H419H414V745V756H419H424V761V766H429H434V771V776H439.5H445V771V766H450H455V771V776H460.5H466V771V766H471H476V761V756H481H486V745V734H481H476V729V724H470.5H465V729V734H450H435V729V724H429.5H424V729ZM435 750V755H440H445V750V745H440H435V750ZM455 750V755H460H465V750V745H460H455V750Z" fill="#1C1C1C"/>
<path fill-rule="evenodd" clip-rule="evenodd" d="M524 729V734H519H514V745V756H519H524V761V766H529H534V771V776H539.5H545V771V766H550H555V771V776H560.5H566V771V766H571H576V761V756H581H586V745V734H581H576V729V724H570.5H565V729V734H550H535V729V724H529.5H524V729ZM535 750V755H540H545V750V745H540H535V750ZM555 750V755H560H565V750V745H560H555V750Z" fill="#2C2C2C"/>
<path fill-rule="evenodd" clip-rule="evenodd" d="M424 629V634H419H414V645V656H419H424V661V666H429H434V671V676H439.5H445V671V666H450H455V671V676H460.5H466V671V666H471H476V661V656H481H486V645V634H481H476V629V624H470.5H465V629V634H450H435V629V624H429.5H424V629ZM435 650V655H440H445V650V645H440H435V650ZM455 650V655H460H465V650V645H460H455V650Z" fill="#2C2C2C"/>
<rect x="600" y="600" width="100" height="100" fill="#252525"/>
<rect x="700" y="700" width="100" height="100" fill="#252525"/>
<rect x="600" y="700" width="100" height="100" fill="#222222"/>
<rect x="700" y="600" width="100" height="100" fill="#222222"/>
<path fill-rule="evenodd" clip-rule="evenodd" d="M724 629V634H719H714V645V656H719H724V661V666H729H734V671V676H739.5H745V671V666H750H755V671V676H760.5H766V671V666H771H776V661V656H781H786V645V634H781H776V629V624H770.5H765V629V634H750H735V629V624H729.5H724V629ZM735 650V655H740H745V650V645H740H735V650ZM755 650V655H760H765V650V645H760H755V650Z" fill="#1C1C1C"/>
<path fill-rule="evenodd" clip-rule="evenodd" d="M624 729V734H619H614V745V756H619H624V761V766H629H634V771V776H639.5H645V771V766H650H655V771V776H660.5H666V771V766H671H676V761V756H681H686V745V734H681H676V729V724H670.5H665V729V734H650H635V729V724H629.5H624V729ZM635 750V755H640H645V750V745H640H635V750ZM655 750V755H660H665V750V745H660H655V750Z" fill="#1C1C1C"/>
<path fill-rule="evenodd" clip-rule="evenodd" d="M724 729V734H719H714V745V756H719H724V761V766H729H734V771V776H739.5H745V771V766H750H755V771V776H760.5H766V771V766H771H776V761V756H781H786V745V734H781H776V729V724H770.5H765V729V734H750H735V729V724H729.5H724V729ZM735 750V755H740H745V750V745H740H735V750ZM755 750V755H760H765V750V745H760H755V750Z" fill="#2C2C2C"/>
<path fill-rule="evenodd" clip-rule="evenodd" d="M624 629V634H619H614V645V656H619H624V661V666H629H634V671V676H639.5H645V671V666H650H655V671V676H660.5H666V671V666H671H676V661V656H681H686V645V634H681H676V629V624H670.5H665V629V634H650H635V629V624H629.5H624V629ZM635 650V655H640H645V650V645H640H635V650ZM655 650V655H660H665V650V645H660H655V650Z" fill="#2C2C2C"/>
<rect y="400" width="100" height="100" fill="#252525"/>
<rect x="100" y="500" width="100" height="100" fill="#252525"/>
<rect y="500" width="100" height="100" fill="#222222"/>
<rect x="100" y="400" width="100" height="100" fill="#222222"/>
<path fill-rule="evenodd" clip-rule="evenodd" d="M124 429V434H119H114V445V456H119H124V461V466H129H134V471V476H139.5H145V471V466H150H155V471V476H160.5H166V471V466H171H176V461V456H181H186V445V434H181H176V429V424H170.5H165V429V434H150H135V429V424H129.5H124V429ZM135 450V455H140H145V450V445H140H135V450ZM155 450V455H160H165V450V445H160H155V450Z" fill="#1C1C1C"/>
<path fill-rule="evenodd" clip-rule="evenodd" d="M24 529V534H19H14V545V556H19H24V561V566H29H34V571V576H39.5H45V571V566H50H55V571V576H60.5H66V571V566H71H76V561V556H81H86V545V534H81H76V529V524H70.5H65V529V534H50H35V529V524H29.5H24V529ZM35 550V555H40H45V550V545H40H35V550ZM55 550V555H60H65V550V545H60H55V550Z" fill="#1C1C1C"/>
<path fill-rule="evenodd" clip-rule="evenodd" d="M124 529V534H119H114V545V556H119H124V561V566H129H134V571V576H139.5H145V571V566H150H155V571V576H160.5H166V571V566H171H176V561V556H181H186V545V534H181H176V529V524H170.5H165V529V534H150H135V529V524H129.5H124V529ZM135 550V555H140H145V550V545H140H135V550ZM155 550V555H160H165V550V545H160H155V550Z" fill="#2C2C2C"/>
<path fill-rule="evenodd" clip-rule="evenodd" d="M24 429V434H19H14V445V456H19H24V461V466H29H34V471V476H39.5H45V471V466H50H55V471V476H60.5H66V471V466H71H76V461V456H81H86V445V434H81H76V429V424H70.5H65V429V434H50H35V429V424H29.5H24V429ZM35 450V455H40H45V450V445H40H35V450ZM55 450V455H60H65V450V445H60H55V450Z" fill="#2C2C2C"/>
<rect x="200" y="400" width="100" height="100" fill="#252525"/>
<rect x="300" y="500" width="100" height="100" fill="#252525"/>
<rect x="200" y="500" width="100" height="100" fill="#222222"/>
<rect x="300" y="400" width="100" height="100" fill="#222222"/>
<path fill-rule="evenodd" clip-rule="evenodd" d="M324 429V434H319H314V445V456H319H324V461V466H329H334V471V476H339.5H345V471V466H350H355V471V476H360.5H366V471V466H371H376V461V456H381H386V445V434H381H376V429V424H370.5H365V429V434H350H335V429V424H329.5H324V429ZM335 450V455H340H345V450V445H340H335V450ZM355 450V455H360H365V450V445H360H355V450Z" fill="#1C1C1C"/>
<path fill-rule="evenodd" clip-rule="evenodd" d="M224 529V534H219H214V545V556H219H224V561V566H229H234V571V576H239.5H245V571V566H250H255V571V576H260.5H266V571V566H271H276V561V556H281H286V545V534H281H276V529V524H270.5H265V529V534H250H235V529V524H229.5H224V529ZM235 550V555H240H245V550V545H240H235V550ZM255 550V555H260H265V550V545H260H255V550Z" fill="#1C1C1C"/>
<path fill-rule="evenodd" clip-rule="evenodd" d="M324 529V534H319H314V545V556H319H324V561V566H329H334V571V576H339.5H345V571V566H350H355V571V576H360.5H366V571V566H371H376V561V556H381H386V545V534H381H376V529V524H370.5H365V529V534H350H335V529V524H329.5H324V529ZM335 550V555H340H345V550V545H340H335V550ZM355 550V555H360H365V550V545H360H355V550Z" fill="#2C2C2C"/>
<path fill-rule="evenodd" clip-rule="evenodd" d="M224 429V434H219H214V445V456H219H224V461V466H229H234V471V476H239.5H245V471V466H250H255V471V476H260.5H266V471V466H271H276V461V456H281H286V445V434H281H276V429V424H270.5H265V429V434H250H235V429V424H229.5H224V429ZM235 450V455H240H245V450V445H240H235V450ZM255 450V455H260H265V450V445H260H255V450Z" fill="#2C2C2C"/>
<rect y="600" width="100" height="100" fill="#252525"/>
<rect x="100" y="700" width="100" height="100" fill="#252525"/>
<rect y="700" width="100" height="100" fill="#222222"/>
<rect x="100" y="600" width="100" height="100" fill="#222222"/>
<path fill-rule="evenodd" clip-rule="evenodd" d="M124 629V634H119H114V645V656H119H124V661V666H129H134V671V676H139.5H145V671V666H150H155V671V676H160.5H166V671V666H171H176V661V656H181H186V645V634H181H176V629V624H170.5H165V629V634H150H135V629V624H129.5H124V629ZM135 650V655H140H145V650V645H140H135V650ZM155 650V655H160H165V650V645H160H155V650Z" fill="#1C1C1C"/>
<path fill-rule="evenodd" clip-rule="evenodd" d="M24 729V734H19H14V745V756H19H24V761V766H29H34V771V776H39.5H45V771V766H50H55V771V776H60.5H66V771V766H71H76V761V756H81H86V745V734H81H76V729V724H70.5H65V729V734H50H35V729V724H29.5H24V729ZM35 750V755H40H45V750V745H40H35V750ZM55 750V755H60H65V750V745H60H55V750Z" fill="#1C1C1C"/>
<path fill-rule="evenodd" clip-rule="evenodd" d="M124 729V734H119H114V745V756H119H124V761V766H129H134V771V776H139.5H145V771V766H150H155V771V776H160.5H166V771V766H171H176V761V756H181H186V745V734H181H176V729V724H170.5H165V729V734H150H135V729V724H129.5H124V729ZM135 750V755H140H145V750V745H140H135V750ZM155 750V755H160H165V750V745H160H155V750Z" fill="#2C2C2C"/>
<path fill-rule="evenodd" clip-rule="evenodd" d="M24 629V634H19H14V645V656H19H24V661V666H29H34V671V676H39.5H45V671V666H50H55V671V676H60.5H66V671V666H71H76V661V656H81H86V645V634H81H76V629V624H70.5H65V629V634H50H35V629V624H29.5H24V629ZM35 650V655H40H45V650V645H40H35V650ZM55 650V655H60H65V650V645H60H55V650Z" fill="#2C2C2C"/>
<rect x="200" y="600" width="100" height="100" fill="#252525"/>
<rect x="300" y="700" width="100" height="100" fill="#252525"/>
<rect x="200" y="700" width="100" height="100" fill="#222222"/>
<rect x="300" y="600" width="100" height="100" fill="#222222"/>
<path fill-rule="evenodd" clip-rule="evenodd" d="M324 629V634H319H314V645V656H319H324V661V666H329H334V671V676H339.5H345V671V666H350H355V671V676H360.5H366V671V666H371H376V661V656H381H386V645V634H381H376V629V624H370.5H365V629V634H350H335V629V624H329.5H324V629ZM335 650V655H340H345V650V645H340H335V650ZM355 650V655H360H365V650V645H360H355V650Z" fill="#1C1C1C"/>
<path fill-rule="evenodd" clip-rule="evenodd" d="M224 729V734H219H214V745V756H219H224V761V766H229H234V771V776H239.5H245V771V766H250H255V771V776H260.5H266V771V766H271H276V761V756H281H286V745V734H281H276V729V724H270.5H265V729V734H250H235V729V724H229.5H224V729ZM235 750V755H240H245V750V745H240H235V750ZM255 750V755H260H265V750V745H260H255V750Z" fill="#1C1C1C"/>
<path fill-rule="evenodd" clip-rule="evenodd" d="M324 729V734H319H314V745V756H319H324V761V766H329H334V771V776H339.5H345V771V766H350H355V771V776H360.5H366V771V766H371H376V761V756H381H386V745V734H381H376V729V724H370.5H365V729V734H350H335V729V724H329.5H324V729ZM335 750V755H340H345V750V745H340H335V750ZM355 750V755H360H365V750V745H360H355V750Z" fill="#2C2C2C"/>
<path fill-rule="evenodd" clip-rule="evenodd" d="M224 629V634H219H214V645V656H219H224V661V666H229H234V671V676H239.5H245V671V666H250H255V671V676H260.5H266V671V666H271H276V661V656H281H286V645V634H281H276V629V624H270.5H265V629V634H250H235V629V624H229.5H224V629ZM235 650V655H240H245V650V645H240H235V650ZM255 650V655H260H265V650V645H260H255V650Z" fill="#2C2C2C"/>
<rect x="400" width="100" height="100" fill="#252525"/>
<rect x="500" y="100" width="100" height="100" fill="#252525"/>
<rect x="400" y="100" width="100" height="100" fill="#222222"/>
<rect x="500" width="100" height="100" fill="#222222"/>
<path fill-rule="evenodd" clip-rule="evenodd" d="M524 29V34H519H514V45V56H519H524V61V66H529H534V71V76H539.5H545V71V66H550H555V71V76H560.5H566V71V66H571H576V61V56H581H586V45V34H581H576V29V24H570.5H565V29V34H550H535V29V24H529.5H524V29ZM535 50V55H540H545V50V45H540H535V50ZM555 50V55H560H565V50V45H560H555V50Z" fill="#1C1C1C"/>
<path fill-rule="evenodd" clip-rule="evenodd" d="M424 129V134H419H414V145V156H419H424V161V166H429H434V171V176H439.5H445V171V166H450H455V171V176H460.5H466V171V166H471H476V161V156H481H486V145V134H481H476V129V124H470.5H465V129V134H450H435V129V124H429.5H424V129ZM435 150V155H440H445V150V145H440H435V150ZM455 150V155H460H465V150V145H460H455V150Z" fill="#1C1C1C"/>
<path fill-rule="evenodd" clip-rule="evenodd" d="M524 129V134H519H514V145V156H519H524V161V166H529H534V171V176H539.5H545V171V166H550H555V171V176H560.5H566V171V166H571H576V161V156H581H586V145V134H581H576V129V124H570.5H565V129V134H550H535V129V124H529.5H524V129ZM535 150V155H540H545V150V145H540H535V150ZM555 150V155H560H565V150V145H560H555V150Z" fill="#2C2C2C"/>
<path fill-rule="evenodd" clip-rule="evenodd" d="M424 29V34H419H414V45V56H419H424V61V66H429H434V71V76H439.5H445V71V66H450H455V71V76H460.5H466V71V66H471H476V61V56H481H486V45V34H481H476V29V24H470.5H465V29V34H450H435V29V24H429.5H424V29ZM435 50V55H440H445V50V45H440H435V50ZM455 50V55H460H465V50V45H460H455V50Z" fill="#2C2C2C"/>
<rect x="600" width="100" height="100" fill="#252525"/>
<rect x="700" y="100" width="100" height="100" fill="#252525"/>
<rect x="600" y="100" width="100" height="100" fill="#222222"/>
<rect x="700" width="100" height="100" fill="#222222"/>
<path fill-rule="evenodd" clip-rule="evenodd" d="M724 29V34H719H714V45V56H719H724V61V66H729H734V71V76H739.5H745V71V66H750H755V71V76H760.5H766V71V66H771H776V61V56H781H786V45V34H781H776V29V24H770.5H765V29V34H750H735V29V24H729.5H724V29ZM735 50V55H740H745V50V45H740H735V50ZM755 50V55H760H765V50V45H760H755V50Z" fill="#1C1C1C"/>
<path fill-rule="evenodd" clip-rule="evenodd" d="M624 129V134H619H614V145V156H619H624V161V166H629H634V171V176H639.5H645V171V166H650H655V171V176H660.5H666V171V166H671H676V161V156H681H686V145V134H681H676V129V124H670.5H665V129V134H650H635V129V124H629.5H624V129ZM635 150V155H640H645V150V145H640H635V150ZM655 150V155H660H665V150V145H660H655V150Z" fill="#1C1C1C"/>
<path fill-rule="evenodd" clip-rule="evenodd" d="M724 129V134H719H714V145V156H719H724V161V166H729H734V171V176H739.5H745V171V166H750H755V171V176H760.5H766V171V166H771H776V161V156H781H786V145V134H781H776V129V124H770.5H765V129V134H750H735V129V124H729.5H724V129ZM735 150V155H740H745V150V145H740H735V150ZM755 150V155H760H765V150V145H760H755V150Z" fill="#2C2C2C"/>
<path fill-rule="evenodd" clip-rule="evenodd" d="M624 29V34H619H614V45V56H619H624V61V66H629H634V71V76H639.5H645V71V66H650H655V71V76H660.5H666V71V66H671H676V61V56H681H686V45V34H681H676V29V24H670.5H665V29V34H650H635V29V24H629.5H624V29ZM635 50V55H640H645V50V45H640H635V50ZM655 50V55H660H665V50V45H660H655V50Z" fill="#2C2C2C"/>
<rect x="400" y="200" width="100" height="100" fill="#252525"/>
<rect x="500" y="300" width="100" height="100" fill="#252525"/>
<rect x="400" y="300" width="100" height="100" fill="#222222"/>
<rect x="500" y="200" width="100" height="100" fill="#222222"/>
<path fill-rule="evenodd" clip-rule="evenodd" d="M524 229V234H519H514V245V256H519H524V261V266H529H534V271V276H539.5H545V271V266H550H555V271V276H560.5H566V271V266H571H576V261V256H581H586V245V234H581H576V229V224H570.5H565V229V234H550H535V229V224H529.5H524V229ZM535 250V255H540H545V250V245H540H535V250ZM555 250V255H560H565V250V245H560H555V250Z" fill="#1C1C1C"/>
<path fill-rule="evenodd" clip-rule="evenodd" d="M424 329V334H419H414V345V356H419H424V361V366H429H434V371V376H439.5H445V371V366H450H455V371V376H460.5H466V371V366H471H476V361V356H481H486V345V334H481H476V329V324H470.5H465V329V334H450H435V329V324H429.5H424V329ZM435 350V355H440H445V350V345H440H435V350ZM455 350V355H460H465V350V345H460H455V350Z" fill="#1C1C1C"/>
<path fill-rule="evenodd" clip-rule="evenodd" d="M524 329V334H519H514V345V356H519H524V361V366H529H534V371V376H539.5H545V371V366H550H555V371V376H560.5H566V371V366H571H576V361V356H581H586V345V334H581H576V329V324H570.5H565V329V334H550H535V329V324H529.5H524V329ZM535 350V355H540H545V350V345H540H535V350ZM555 350V355H560H565V350V345H560H555V350Z" fill="#2C2C2C"/>
<path fill-rule="evenodd" clip-rule="evenodd" d="M424 229V234H419H414V245V256H419H424V261V266H429H434V271V276H439.5H445V271V266H450H455V271V276H460.5H466V271V266H471H476V261V256H481H486V245V234H481H476V229V224H470.5H465V229V234H450H435V229V224H429.5H424V229ZM435 250V255H440H445V250V245H440H435V250ZM455 250V255H460H465V250V245H460H455V250Z" fill="#2C2C2C"/>
<rect x="600" y="200" width="100" height="100" fill="#252525"/>
<rect x="700" y="300" width="100" height="100" fill="#252525"/>
<rect x="600" y="300" width="100" height="100" fill="#222222"/>
<rect x="700" y="200" width="100" height="100" fill="#222222"/>
<path fill-rule="evenodd" clip-rule="evenodd" d="M724 229V234H719H714V245V256H719H724V261V266H729H734V271V276H739.5H745V271V266H750H755V271V276H760.5H766V271V266H771H776V261V256H781H786V245V234H781H776V229V224H770.5H765V229V234H750H735V229V224H729.5H724V229ZM735 250V255H740H745V250V245H740H735V250ZM755 250V255H760H765V250V245H760H755V250Z" fill="#1C1C1C"/>
<path fill-rule="evenodd" clip-rule="evenodd" d="M624 329V334H619H614V345V356H619H624V361V366H629H634V371V376H639.5H645V371V366H650H655V371V376H660.5H666V371V366H671H676V361V356H681H686V345V334H681H676V329V324H670.5H665V329V334H650H635V329V324H629.5H624V329ZM635 350V355H640H645V350V345H640H635V350ZM655 350V355H660H665V350V345H660H655V350Z" fill="#1C1C1C"/>
<path fill-rule="evenodd" clip-rule="evenodd" d="M724 329V334H719H714V345V356H719H724V361V366H729H734V371V376H739.5H745V371V366H750H755V371V376H760.5H766V371V366H771H776V361V356H781H786V345V334H781H776V329V324H770.5H765V329V334H750H735V329V324H729.5H724V329ZM735 350V355H740H745V350V345H740H735V350ZM755 350V355H760H765V350V345H760H755V350Z" fill="#2C2C2C"/>
<path fill-rule="evenodd" clip-rule="evenodd" d="M624 229V234H619H614V245V256H619H624V261V266H629H634V271V276H639.5H645V271V266H650H655V271V276H660.5H666V271V266H671H676V261V256H681H686V245V234H681H676V229V224H670.5H665V229V234H650H635V229V224H629.5H624V229ZM635 250V255H640H645V250V245H640H635V250ZM655 250V255H660H665V250V245H660H655V250Z" fill="#2C2C2C"/>
</svg>
