<svg width="399" height="399" viewBox="0 0 399 399" fill="none" xmlns="http://www.w3.org/2000/svg">
<path d="M164 10H211.5L388.5 187V212.5L211.5 389.5H164L128.5 354V307L171 264.5H62L10 212.5V187L62 135H171L128.5 92.5V45.5L164 10Z" fill="#222222"/>
<path fill-rule="evenodd" clip-rule="evenodd" d="M398 183.065V216.435L215.435 399H160.065L119 357.935V303.065L148.065 274H58.065L0.5 216.435V183.065L58.065 125.5H148.065L119 96.435V41.565L160.065 0.5H215.435L398 183.065ZM379 190.935L207.565 19.5H167.935L138 49.435V88.565L193.935 144.5H65.9351L19.5 190.935V208.565L65.9351 255H193.935L138 310.935V350.065L167.935 380H207.565L379 208.565V190.935Z" fill="#999999"/>
<path d="M175.5 55.5H206L341.5 191V208.5L206 344H175.5V319.5C175.5 319.5 209.021 285.979 230.5 264.5C230.5 256.104 230.5 243 230.5 243L265 208.5V191L230.5 156.5V135L175.5 80V55.5Z" fill="#CCCCCC"/>
<path d="M227.491 171.5L255.5 199.178V199.822L227.491 227.5H194.922V210.121L184.5 199.822V199.178L194.922 188.879V171.5H227.491Z" fill="#CCCCCC"/>
<path fill-rule="evenodd" clip-rule="evenodd" d="M179.5 173.5H174.5V168.5V163.5H163.5H152.5V168.5V173.5H147.5H142.5V178.5V183.5H137.5H132.5V189V194.5H137.5H142.5V199.5V204.5H137.5H132.5V210V215.5H137.5H142.5V220.5V225.5H147.5H152.5V230.5V235.5H163.5H174.5V230.5V225.5H179.5H184.5V220V214.5H179.5H174.5V199.5V184.5H179.5H184.5V179V173.5H179.5ZM158.5 184.5H153.5V189.5V194.5H158.5H163.5V189.5V184.5H158.5ZM158.5 204.5H153.5V209.5V214.5H158.5H163.5V209.5V204.5H158.5Z" fill="#D1406E"/>
<path d="M229.5 135.5L264 170" stroke="#222222" stroke-width="2.13"/>
<path d="M229 264.5L264 229.5" stroke="#222222" stroke-width="2.13"/>
<path d="M59.4982 195.63L86.176 171.5H129L107.82 192.68V195.63V203.37V206.32L129 227.5H86.176L59.4982 203.37V195.63Z" fill="#CCCCCC"/>
<circle cx="297" cy="224.5" r="3" transform="rotate(90 297 224.5)" fill="#222222"/>
<circle cx="287" cy="234.5" r="3" transform="rotate(90 287 234.5)" fill="#222222"/>
<circle cx="219" cy="215.5" r="3" transform="rotate(90 219 215.5)" fill="#222222"/>
<circle cx="219" cy="183.5" r="3" transform="rotate(90 219 183.5)" fill="#222222"/>
<circle cx="88" cy="176.5" r="3" transform="rotate(90 88 176.5)" fill="#222222"/>
<circle cx="88" cy="222.5" r="3" transform="rotate(90 88 222.5)" fill="#222222"/>
<rect x="295.953" y="221.953" width="2" height="53.2796" transform="rotate(135 295.953 221.953)" fill="#222222"/>
<rect width="2" height="37.5899" transform="matrix(-0.707107 -0.707107 -0.707107 0.707107 110 170.914)" fill="#222222"/>
<rect width="2" height="37.5899" transform="matrix(-0.707107 -0.707107 -0.707107 0.707107 130 170.914)" fill="#222222"/>
<rect x="109.859" y="228.258" width="2" height="37.4104" transform="rotate(135 109.859 228.258)" fill="#222222"/>
<rect x="130" y="228.258" width="2" height="37.4104" transform="rotate(135 130 228.258)" fill="#222222"/>
<rect width="2" height="37.5899" transform="matrix(-0.707107 -0.707107 -0.707107 0.707107 132.898 170.914)" fill="#CCCCCC"/>
<rect x="132.898" y="228.258" width="2" height="37.4104" transform="rotate(135 132.898 228.258)" fill="#CCCCCC"/>
<circle cx="3" cy="3" r="3" transform="matrix(0 -1 -1 0 300 178.5)" fill="#222222"/>
<circle cx="3" cy="3" r="3" transform="matrix(0 -1 -1 0 290 168.5)" fill="#222222"/>
<rect width="2" height="53.2796" transform="matrix(-0.707107 -0.707107 -0.707107 0.707107 295.953 177.547)" fill="#222222"/>
<rect x="84" y="196.102" width="7.1" height="2" transform="rotate(90 84 196.102)" fill="#222222"/>
<rect x="104" y="196.102" width="7.1" height="2" transform="rotate(90 104 196.102)" fill="#222222"/>
<rect x="228" y="195.898" width="7.1" height="2" transform="rotate(90 228 195.898)" fill="#222222"/>
<rect x="199" y="193.5" width="12" height="2" transform="rotate(90 199 193.5)" fill="#222222"/>
<rect x="202" y="196.102" width="7.1" height="2" transform="rotate(90 202 196.102)" fill="#222222"/>
<rect x="227" y="200.5" width="32" height="2" transform="rotate(-180 227 200.5)" fill="#222222"/>
<rect x="205.383" y="178.5" width="9" height="2" transform="rotate(-180 205.383 178.5)" fill="#222222"/>
<rect x="205.383" y="222.5" width="9" height="2" transform="rotate(-180 205.383 222.5)" fill="#222222"/>
<rect x="228" y="199.914" width="32" height="2" transform="rotate(135 228 199.914)" fill="#222222"/>
<rect width="32" height="2" transform="matrix(-0.707107 -0.707107 -0.707107 0.707107 228 199.125)" fill="#222222"/>
<rect width="17.6286" height="2" transform="matrix(-0.707107 -0.707107 -0.707107 0.707107 245 232.969)" fill="#CCCCCC"/>
<rect width="17.6286" height="4" transform="matrix(-0.707107 -0.707107 -0.707107 0.707107 241.602 235.969)" fill="#CCCCCC"/>
<rect x="245" y="166.328" width="17.6286" height="2" transform="rotate(135 245 166.328)" fill="#CCCCCC"/>
<rect x="241.602" y="163" width="17.6286" height="4" transform="rotate(135 241.602 163)" fill="#CCCCCC"/>
<rect x="133" y="168.5" width="3" height="9" transform="rotate(90 133 168.5)" fill="#222222"/>
<rect x="133" y="227.5" width="3" height="9" transform="rotate(90 133 227.5)" fill="#222222"/>
<path d="M226 146C226 146.402 225.892 146.708 225.677 146.918C225.462 147.135 225.142 147.199 224.718 147.111L221.015 146.35L223.669 149.308C223.998 149.686 224.15 150.044 224.123 150.382C224.103 150.721 223.965 151.006 223.709 151.24C223.44 151.473 223.164 151.55 222.882 151.469C222.599 151.389 222.364 151.123 222.175 150.672L220.5 146.64L218.825 150.672C218.636 151.123 218.401 151.389 218.118 151.469C217.843 151.55 217.57 151.473 217.301 151.24C217.045 151.006 216.904 150.721 216.877 150.382C216.857 150.044 217.012 149.686 217.341 149.308L219.985 146.35L216.282 147.111C215.858 147.199 215.538 147.135 215.323 146.918C215.108 146.708 215 146.402 215 146C215 145.606 215.108 145.3 215.323 145.082C215.538 144.873 215.858 144.809 216.282 144.889L219.985 145.65L217.341 142.692C217.012 142.322 216.857 141.964 216.877 141.618C216.904 141.279 217.045 140.994 217.301 140.76C217.57 140.527 217.843 140.45 218.118 140.531C218.401 140.619 218.636 140.885 218.825 141.328L220.5 145.36L222.175 141.328C222.364 140.885 222.599 140.619 222.882 140.531C223.164 140.45 223.44 140.527 223.709 140.76C223.965 140.994 224.103 141.279 224.123 141.618C224.15 141.964 223.998 142.322 223.669 142.692L221.015 145.65L224.718 144.889C225.142 144.809 225.462 144.873 225.677 145.082C225.892 145.3 226 145.606 226 146Z" fill="#CCCCCC"/>
<path d="M226 254C226 254.402 225.892 254.708 225.677 254.918C225.462 255.135 225.142 255.199 224.718 255.111L221.015 254.35L223.669 257.308C223.998 257.686 224.15 258.044 224.123 258.382C224.103 258.721 223.965 259.006 223.709 259.24C223.44 259.473 223.164 259.55 222.882 259.469C222.599 259.389 222.364 259.123 222.175 258.672L220.5 254.64L218.825 258.672C218.636 259.123 218.401 259.389 218.118 259.469C217.843 259.55 217.57 259.473 217.301 259.24C217.045 259.006 216.904 258.721 216.877 258.382C216.857 258.044 217.012 257.686 217.341 257.308L219.985 254.35L216.282 255.111C215.858 255.199 215.538 255.135 215.323 254.918C215.108 254.708 215 254.402 215 254C215 253.606 215.108 253.3 215.323 253.082C215.538 252.873 215.858 252.809 216.282 252.889L219.985 253.65L217.341 250.692C217.012 250.322 216.857 249.964 216.877 249.618C216.904 249.279 217.045 248.994 217.301 248.76C217.57 248.527 217.843 248.45 218.118 248.531C218.401 248.619 218.636 248.885 218.825 249.328L220.5 253.36L222.175 249.328C222.364 248.885 222.599 248.619 222.882 248.531C223.164 248.45 223.44 248.527 223.709 248.76C223.965 248.994 224.103 249.279 224.123 249.618C224.15 249.964 223.998 250.322 223.669 250.692L221.015 253.65L224.718 252.889C225.142 252.809 225.462 252.873 225.677 253.082C225.892 253.3 226 253.606 226 254Z" fill="#CCCCCC"/>
<path d="M355 197.863V202.137L349 207.5V204.253L352.366 200L349 195.747V192.5L355 197.863Z" fill="#CCCCCC"/>
<rect x="236" y="200.742" width="2" height="6" transform="rotate(135 236 200.742)" fill="#222222"/>
<rect width="2" height="6" transform="matrix(-0.707107 -0.707107 -0.707107 0.707107 236 197.914)" fill="#222222"/>
</svg>
