<svg width="399" height="399" viewBox="0 0 399 399" fill="none" xmlns="http://www.w3.org/2000/svg">
<path d="M164 10H211.5L388.5 187V212.5L211.5 389.5H164L128.5 354V307L171 264.5H62L10 212.5V187L62 135H171L128.5 92.5V45.5L164 10Z" fill="#222222"/>
<path fill-rule="evenodd" clip-rule="evenodd" d="M398 183.065V216.435L215.435 399H160.065L119 357.935V303.065L148.065 274H58.065L0.5 216.435V183.065L58.065 125.5H148.065L119 96.435V41.565L160.065 0.5H215.435L398 183.065ZM379 190.935L207.565 19.5H167.935L138 49.435V88.565L193.935 144.5H65.9351L19.5 190.935V208.565L65.9351 255H193.935L138 310.935V350.065L167.935 380H207.565L379 208.565V190.935Z" fill="#999999"/>
<path d="M175.5 55.5H206L341.5 191V208.5L206 344H175.5V319.5C175.5 319.5 209.021 285.979 230.5 264.5C230.5 256.104 230.5 243 230.5 243L265 208.5V191L230.5 156.5V135L175.5 80V55.5Z" fill="#CCCCCC"/>
<path d="M227.491 171.5L255.5 199.178V199.822L227.491 227.5H194.922V210.121L184.5 199.822V199.178L194.922 188.879V171.5H227.491Z" fill="#CCCCCC"/>
<path fill-rule="evenodd" clip-rule="evenodd" d="M179.5 173.5H174.5V168.5V163.5H163.5H152.5V168.5V173.5H147.5H142.5V178.5V183.5H137.5H132.5V189V194.5H137.5H142.5V199.5V204.5H137.5H132.5V210V215.5H137.5H142.5V220.5V225.5H147.5H152.5V230.5V235.5H163.5H174.5V230.5V225.5H179.5H184.5V220V214.5H179.5H174.5V199.5V184.5H179.5H184.5V179V173.5H179.5ZM158.5 184.5H153.5V189.5V194.5H158.5H163.5V189.5V184.5H158.5ZM158.5 204.5H153.5V209.5V214.5H158.5H163.5V209.5V204.5H158.5Z" fill="#D1406E"/>
<path d="M229.5 135.5L264 170M229.5 263.5L264 229" stroke="#222222" stroke-width="2.13"/>
<path d="M59.4982 195.63L86.176 171.5H129L107.82 192.68V195.63V203.37V206.32L129 227.5H86.176L59.4982 203.37V195.63Z" fill="#CCCCCC"/>
<circle cx="297" cy="224.5" r="3" transform="rotate(90 297 224.5)" fill="#222222"/>
<circle cx="287" cy="234.5" r="3" transform="rotate(90 287 234.5)" fill="#222222"/>
<rect x="295.953" y="221.953" width="2" height="53.2796" transform="rotate(135 295.953 221.953)" fill="#222222"/>
<circle cx="3" cy="3" r="3" transform="matrix(0 -1 -1 0 300 178.5)" fill="#222222"/>
<circle cx="3" cy="3" r="3" transform="matrix(0 -1 -1 0 290 168.5)" fill="#222222"/>
<rect width="2" height="53.2796" transform="matrix(-0.707107 -0.707107 -0.707107 0.707107 295.953 177.547)" fill="#222222"/>
</svg>
